<svg width="45" height="41" viewBox="0 0 45 41" fill="none" xmlns="http://www.w3.org/2000/svg">
<path fill-rule="evenodd" clip-rule="evenodd" d="M0.262477 30.3483L21.9619 40.9532C22.0246 40.984 22.0934 41 22.163 41C22.2327 41 22.3014 40.984 22.3641 40.9532L44.0324 30.3629C44.1186 30.3282 44.1925 30.2682 44.2446 30.1907C44.2968 30.1132 44.3247 30.0215 44.3248 29.9277L44.3237 3.94699C44.3235 3.88338 44.3105 3.82047 44.2853 3.76218C44.2538 3.6878 44.2033 3.62319 44.139 3.57494L44.0911 3.54223C44.029 3.50626 43.9592 3.48539 43.8877 3.48129C43.8162 3.47719 43.7447 3.48996 43.6788 3.5186L41.0127 4.6856L41.0097 2.108C41.0101 2.04103 40.9964 1.97473 40.9696 1.9135C40.9186 1.80108 40.8256 1.71368 40.711 1.6705C40.5964 1.62734 40.4696 1.63192 40.3583 1.68325L37.61 2.95629V0.467768H37.6088C37.6087 0.399488 37.5937 0.332071 37.5651 0.270239C37.5333 0.200943 37.4848 0.140758 37.4243 0.0951264L37.3644 0.0563455C37.3012 0.0223173 37.231 0.00361963 37.1595 0.00172669C37.088 -0.000166245 37.0169 0.0147988 36.9521 0.0454402L22.1627 7.05719L7.41174 0.0636171C7.34336 0.0234352 7.26598 0.00156545 7.18691 8.09677e-05C7.10784 -0.00140351 7.0297 0.0175464 6.95989 0.0551342L6.90117 0.0933096C6.84341 0.136697 6.79651 0.193174 6.76425 0.258206C6.73198 0.323238 6.71525 0.395012 6.71539 0.467768V2.95629L4.0049 1.70022C3.93444 1.65968 3.85467 1.63858 3.77361 1.63902C3.69254 1.63945 3.613 1.66142 3.54296 1.70272C3.47294 1.74402 3.41486 1.80319 3.37456 1.87432C3.33426 1.94544 3.31316 2.02604 3.31335 2.108V4.6856L0.686759 3.53677C0.61707 3.49801 0.538704 3.47798 0.459166 3.47861C0.37963 3.47925 0.301589 3.50053 0.232516 3.54041L0.185173 3.57252C0.127684 3.61613 0.0810241 3.67267 0.0488843 3.73766C0.0167445 3.80265 8.83554e-06 3.87432 0 3.94699V29.9277H0.00119788C0.00134369 30.0156 0.0259249 30.1016 0.0721287 30.176C0.118332 30.2503 0.184292 30.3101 0.262477 30.3483ZM35.8839 4.52312L25.4471 9.35717L23.1878 8.28651L35.8839 2.26666V4.52312ZM22.1613 10.8799L19.9135 9.83829L22.1613 8.77307L24.4086 9.83829L22.1613 10.8799ZM18.8749 9.35717L8.43808 4.52312V2.26666L21.1341 8.28651L18.8749 9.35717ZM19.0817 34.7763L21.9672 33.3372L21.9833 33.3451C22.0402 33.3713 22.1021 33.3849 22.1646 33.3849C22.2272 33.3849 22.289 33.3713 22.3459 33.3451L22.3614 33.3372L25.2409 34.7763C25.2757 34.7937 25.3138 34.803 25.3527 34.8036C25.3915 34.8041 25.4299 34.7958 25.465 34.7793L39.6245 28.2275C39.6757 28.2092 39.7199 28.1755 39.7512 28.1307C39.7824 28.086 39.7991 28.0326 39.799 27.9778V6.59477L42.2296 5.53138V29.1357L22.1613 38.9445L2.09243 29.1357V5.53138L4.52246 6.59477V27.9778H4.52366C4.52379 28.0284 4.53825 28.0779 4.56533 28.1204C4.59242 28.1629 4.63099 28.1967 4.67647 28.2177L18.8462 34.7745C18.8825 34.7933 18.9228 34.8033 18.9637 34.8036C19.0046 34.8039 19.045 34.7945 19.0817 34.7763ZM36.0589 5.02361V7.2716L28.2528 10.6872L26.0679 9.65166L36.0589 5.02361ZM8.26369 7.2716V5.02361L18.2541 9.65166L16.0697 10.6872L8.26369 7.2716ZM5.04802 6.63295L7.56315 7.7333V26.3903H7.56494C7.56488 26.4747 7.58886 26.5574 7.63403 26.6285C7.6792 26.6995 7.74362 26.7559 7.81963 26.7908L21.3535 33.0531L18.9612 34.2455L5.04802 27.8081V6.63295ZM36.7589 7.7333L39.2746 6.63295V27.8081L25.3608 34.2455L22.9751 33.0531L36.4683 26.8071C36.5532 26.7763 36.6266 26.7197 36.6787 26.6451C36.7307 26.5706 36.7587 26.4816 36.7589 26.3903V7.7333ZM36.5839 7.23402V4.97453L39.099 3.80995V6.13366L36.5839 7.23402ZM7.73813 7.23402L5.2236 6.13366V3.80995L7.73813 4.97453V7.23402ZM24.2257 27.6215L24.6998 30.959L22.5598 29.1545L24.2257 27.6215ZM24.6045 26.5569V26.5539H24.6087L24.6045 26.5569ZM23.3359 17.5947L23.21 16.7125H24.3786L23.3359 17.5947ZM23.1358 16.1817L22.4484 11.3288L25.0288 10.1334L28.0605 11.5694C28.118 11.5971 28.1808 11.6114 28.2444 11.6115C28.308 11.6116 28.3709 11.5975 28.4284 11.57L35.8839 8.30832V26.1074L25.2386 31.0359L24.6951 27.1913L25.4627 26.4849C25.502 26.4489 25.5295 26.4016 25.5417 26.3496C25.5539 26.2974 25.5502 26.2428 25.531 26.1929C25.5119 26.1428 25.4782 26.1 25.4344 26.0697C25.3907 26.0396 25.3389 26.0229 25.2859 26.0231H24.529L23.4227 18.2116L25.2697 16.6507C25.3111 16.6158 25.3409 16.5688 25.3549 16.5162C25.369 16.4637 25.3667 16.4079 25.3483 16.3566C25.3299 16.3054 25.2963 16.2612 25.2521 16.23C25.2079 16.1988 25.1552 16.1822 25.1013 16.1823L23.1358 16.1817ZM19.7181 26.5539L19.7175 26.5569L19.7134 26.5539H19.7181ZM19.6234 30.959L20.0956 27.6215L21.7628 29.1545L19.6234 30.959ZM21.1114 16.7125L20.9868 17.5947L19.9434 16.7125H21.1114ZM19.6276 27.1913L19.0835 31.0335L8.43808 26.1074V8.30832L15.905 11.5754C15.9615 11.6001 16.0226 11.6124 16.0842 11.6113C16.1458 11.6103 16.2064 11.596 16.2621 11.5694L19.2926 10.1334L21.8742 11.3288L21.1863 16.1817H19.2201C19.1649 16.1817 19.111 16.1993 19.0663 16.232C19.0214 16.2647 18.9881 16.3109 18.9708 16.364C18.9535 16.417 18.9532 16.4743 18.9701 16.5275C18.9869 16.5807 19.0198 16.6272 19.0642 16.6603L20.8986 18.2116L19.793 26.0231L19.0355 26.0237C18.9827 26.0236 18.9309 26.0398 18.8873 26.0701C18.8435 26.1003 18.8099 26.1431 18.7909 26.193C18.7717 26.2429 18.768 26.2975 18.7801 26.3496C18.7922 26.4016 18.8196 26.4488 18.8588 26.4849L19.6276 27.1913ZM19.9021 31.4121L22.1613 29.506L24.4224 31.4146L22.1643 32.4592L19.9021 31.4121ZM20.2472 26.5539H22.0816H24.0754L24.1365 26.9877L22.1613 28.8043L20.1855 26.9877L20.2472 26.5539ZM20.3228 26.0231L21.4068 18.3685H22.9158L23.9993 26.0231H20.3228ZM21.4818 17.8371L21.6405 16.7125H22.6809L22.8409 17.8371H21.4818ZM21.7161 16.1817L22.1613 13.0399L22.6065 16.1817H21.7161ZM1.465 29.8102L21.9713 39.8321C22.0305 39.8613 22.0955 39.8764 22.1613 39.8764C22.2272 39.8764 22.2921 39.8613 22.3513 39.8321L42.8289 29.8241C42.9101 29.7911 42.9799 29.7343 43.029 29.661C43.0782 29.5878 43.1045 29.5012 43.1046 29.4127L43.1033 4.86062C43.1031 4.80039 43.0909 4.74083 43.0674 4.68551C43.0377 4.6153 42.9901 4.55426 42.9296 4.50858L42.8834 4.47768C42.8247 4.44365 42.759 4.42395 42.6915 4.42017C42.624 4.41639 42.5565 4.4286 42.4944 4.45586L39.9746 5.55865L39.9722 3.12222C39.9723 3.05898 39.9592 2.99642 39.9338 2.93863C39.8856 2.83237 39.7978 2.74978 39.6895 2.70899C39.5811 2.66821 39.4613 2.67256 39.3561 2.7211L36.7589 3.92386V1.57227H36.7577C36.7577 1.50774 36.7436 1.44401 36.7164 1.38565C36.6864 1.32023 36.6409 1.26337 36.5839 1.22023L36.527 1.18387C36.4674 1.1515 36.4011 1.13364 36.3335 1.13175C36.2659 1.12986 36.1987 1.14397 36.1375 1.17297L22.1613 7.79935L8.22114 1.19054C8.15659 1.15224 8.08337 1.1314 8.00852 1.13002C7.93369 1.12864 7.85977 1.14677 7.79387 1.18267L7.73813 1.21841C7.68368 1.25949 7.63949 1.31289 7.6091 1.37434C7.57872 1.43579 7.56297 1.50357 7.56315 1.57227V3.92386L5.00127 2.73685C4.93469 2.69867 4.85935 2.67883 4.78281 2.67931C4.70625 2.67978 4.63117 2.70057 4.56505 2.73957C4.49893 2.77858 4.44409 2.83445 4.40602 2.9016C4.36794 2.96875 4.34797 3.04482 4.34808 3.12222V5.55865L1.8659 4.47282C1.80001 4.43605 1.72586 4.41706 1.6506 4.4177C1.57534 4.41833 1.50151 4.43858 1.43624 4.47646L1.39189 4.50676C1.33748 4.54788 1.29332 4.6013 1.26294 4.66273C1.23256 4.72417 1.21679 4.79193 1.2169 4.86062V29.4127H1.2181C1.21812 29.4957 1.24128 29.577 1.28496 29.6473C1.32864 29.7176 1.39103 29.7741 1.465 29.8102Z" fill="#E84B2C"/>
</svg>
