<svg width="215" height="63" viewBox="0 0 215 63" fill="none" xmlns="http://www.w3.org/2000/svg">
<path d="M115.043 46.766H105.972L91.7099 28.1059V46.766H83.8373V6.94266H91.7099V24.5218L105.402 6.94266H114.472L99.6967 26.2855L115.043 46.766Z" fill="white"/>
<path d="M141.641 6.94266V14.4522H126.808V46.766H118.935V6.94266H141.641Z" fill="white"/>
<path d="M160.291 6.14618C166.3 6.14618 171.264 8.13736 175.181 12.1197C179.098 16.064 181.057 20.9757 181.057 26.8544C181.057 32.6951 179.098 37.6066 175.181 41.589C171.264 45.5714 166.3 47.5625 160.291 47.5625C156.678 47.5625 153.35 46.728 150.307 45.0593C147.265 43.3527 144.888 41.058 143.176 38.1756L149.965 34.2501C150.916 35.9947 152.304 37.3792 154.13 38.4031C155.993 39.3892 158.047 39.8823 160.291 39.8823C163.524 39.8823 166.244 39.0479 168.449 37.3792C170.655 35.6723 172.1 33.3779 172.785 30.4953H154.985V23.1564H172.785C172.1 20.274 170.655 17.9983 168.449 16.3296C166.244 14.6229 163.524 13.7695 160.291 13.7695C158.047 13.7695 156.012 14.2815 154.187 15.3056C152.361 16.2916 150.954 17.6761 149.965 19.4586L143.176 15.5331C144.888 12.6507 147.265 10.3751 150.307 8.70626C153.388 6.99955 156.716 6.14618 160.291 6.14618Z" fill="white"/>
<path d="M206.475 6.94266H214.347L202.367 35.7862C199.172 43.5232 193.924 47.1832 186.622 46.766V39.4271C188.751 39.6168 190.463 39.3323 191.756 38.5738C193.087 37.7773 194.19 36.5068 195.065 34.7621L182.001 6.94266H189.873L198.602 26.1716L206.475 6.94266Z" fill="white"/>
<path d="M12.4766 1.7359C12.5932 1.73801 12.708 1.77081 12.8086 1.82965L34.5264 11.9839L56.3008 1.80231C56.3962 1.75776 56.5012 1.73593 56.6064 1.73883C56.7117 1.74173 56.8153 1.76915 56.9082 1.81891L56.9971 1.87457C57.0859 1.94086 57.1565 2.02896 57.2031 2.12946C57.2454 2.21896 57.2675 2.31666 57.2676 2.41559H57.2695V6.02887L61.3154 4.18121C61.4792 4.10665 61.6661 4.10003 61.835 4.16266C62.0036 4.22531 62.1408 4.35199 62.2158 4.5152C62.2554 4.60396 62.2755 4.70029 62.2754 4.79742L62.2793 8.54156L66.2051 6.84723C66.3016 6.8054 66.4067 6.78582 66.5117 6.79156C66.6169 6.79737 66.7193 6.82825 66.8105 6.88043L66.8828 6.92828C66.9771 6.99848 67.0514 7.09191 67.0977 7.19977C67.1342 7.28463 67.1529 7.37594 67.1533 7.46832L67.1553 45.1949C67.1551 45.3309 67.1146 45.4641 67.0381 45.5767C66.9616 45.6893 66.8531 45.777 66.7266 45.8277L34.8223 61.2056C34.7302 61.2504 34.6289 61.273 34.5264 61.273C34.424 61.273 34.3227 61.2505 34.2305 61.2056L2.28223 45.8062C2.167 45.7508 2.06999 45.6633 2.00195 45.5552C1.93401 45.4473 1.89749 45.3224 1.89746 45.1949H1.89551V7.46832C1.8954 7.36291 1.92051 7.25889 1.96777 7.16461C2.0151 7.07025 2.08422 6.98852 2.16895 6.92535L2.2373 6.87848C2.33891 6.82032 2.45413 6.78966 2.57129 6.78864C2.68853 6.78766 2.80458 6.81611 2.90723 6.87262L6.77441 8.54156V4.79742C6.77426 4.67857 6.80499 4.56168 6.86426 4.45856C6.92358 4.35538 7.00929 4.26948 7.1123 4.20953C7.21521 4.14969 7.33204 4.11754 7.45117 4.11676C7.57043 4.11602 7.68826 4.14696 7.79199 4.20563L11.7832 6.02887V2.41559C11.783 2.31021 11.8073 2.20615 11.8545 2.11188C11.9018 2.01756 11.971 1.93572 12.0557 1.87262L12.1426 1.81696C12.2451 1.76191 12.3602 1.73386 12.4766 1.7359ZM62.0059 10.1334V42.9898C62.006 43.0741 61.9793 43.1565 61.9307 43.2252C61.882 43.2939 61.8131 43.3456 61.7334 43.3736L39.6738 53.441C39.6191 53.4663 39.5594 53.4798 39.499 53.4791C39.4384 53.4781 39.3784 53.4638 39.3242 53.4371L34.8389 51.2252L34.8145 51.2379C34.7259 51.2781 34.6295 51.2983 34.5322 51.2984C34.4348 51.2984 34.3377 51.2782 34.249 51.2379L34.2246 51.2252L29.7285 53.4371C29.6715 53.465 29.6085 53.4795 29.5449 53.4791C29.4812 53.4786 29.418 53.4631 29.3613 53.4341L7.28613 43.3589C7.21528 43.3267 7.1545 43.2749 7.1123 43.2095C7.07011 43.1443 7.04806 43.0676 7.04785 42.9898H7.0459V10.1334L3.25977 8.49957V44.7691L34.5264 59.8414L65.793 44.7691V8.49957L62.0059 10.1334ZM7.86426 42.73L29.541 52.6207L33.2686 50.7886L12.1826 41.1666C12.0642 41.1129 11.9639 41.0257 11.8936 40.9166C11.8234 40.8076 11.7861 40.6808 11.7861 40.5513H11.7832V11.8824L7.86426 10.192V42.73ZM57.2695 11.8824V40.5513C57.2691 40.6913 57.2252 40.8277 57.1445 40.942C57.0634 41.0566 56.9487 41.1436 56.8164 41.191L35.7949 50.7886L39.5117 52.6207L61.1885 42.73V10.192L57.2695 11.8824ZM31.0068 48.2672L34.5312 49.8765L38.0498 48.2711L34.5264 45.3384L31.0068 48.2672ZM44.291 17.7779C44.2014 17.8201 44.1031 17.8425 44.0039 17.8423C43.9049 17.8422 43.8072 17.8194 43.7178 17.7769L38.9941 15.5709L34.9736 17.4078L36.0449 24.8648L39.1074 24.8658C39.1913 24.8657 39.273 24.8912 39.3418 24.939C39.4107 24.9871 39.4635 25.0546 39.4922 25.1334C39.5209 25.2121 39.5239 25.2977 39.502 25.3785C39.4801 25.4593 39.4336 25.5318 39.3691 25.5855L36.4922 27.9839L38.2158 39.9869H39.3945C39.477 39.9866 39.5579 40.0119 39.626 40.0582C39.6942 40.1046 39.7465 40.1708 39.7764 40.2476C39.8063 40.3243 39.812 40.4087 39.793 40.4888C39.7739 40.5686 39.731 40.6407 39.6699 40.6959L38.4746 41.7818L39.3213 47.689L55.9062 40.1158V12.7662L44.291 17.7779ZM13.1465 40.1158L29.7314 47.6861L30.5791 41.7818L29.3818 40.6959C29.3209 40.6405 29.2777 40.5687 29.2588 40.4888C29.24 40.4088 29.2456 40.3243 29.2754 40.2476C29.305 40.1711 29.3577 40.1056 29.4258 40.0591C29.4937 40.0127 29.5748 39.9877 29.6572 39.9879L30.8369 39.9869L32.5596 27.9839L29.7012 25.6002C29.6321 25.5493 29.5809 25.4777 29.5547 25.3961C29.5285 25.3145 29.529 25.2264 29.5557 25.1451C29.5827 25.0635 29.6352 24.9922 29.7051 24.942C29.7747 24.8918 29.8584 24.8648 29.9443 24.8648H33.0078L34.0791 17.4078L30.0576 15.5709L25.3359 17.7769C25.2492 17.8179 25.1546 17.8398 25.0586 17.8414C24.9627 17.8431 24.8673 17.8246 24.7793 17.7867L13.1465 12.7662V40.1158ZM30.5723 47.5709L33.9062 44.7984L31.3086 42.4429L30.5723 47.5709ZM35.1475 44.7984L38.4814 47.5709L37.7432 42.4429L35.1475 44.7984ZM31.5449 40.8023L31.4482 41.4693L34.5264 44.2603L37.6035 41.4693L37.5088 40.8023H31.5449ZM30.7129 40.8023L30.7197 40.8072V40.8023H30.7129ZM38.333 40.8023V40.8072L38.3398 40.8023H38.333ZM33.3516 28.2252L31.6621 39.9869H37.3906L35.7021 28.2252H33.3516ZM33.7148 25.6802L33.4678 27.4078H35.5859L35.3359 25.6802H33.7148ZM31.0713 25.6802L32.6973 27.0357L32.8906 25.6802H31.0713ZM36.1602 25.6802L36.3564 27.0357L37.9814 25.6802H36.1602ZM33.833 24.8648H35.2207L34.5264 20.0367L33.833 24.8648ZM31.0244 15.1177L34.5264 16.7173L38.0283 15.1177L34.5264 13.481L31.0244 15.1177ZM12.875 11.1734L25.0361 16.4214L28.4395 14.8306L12.875 7.7193V11.1734ZM40.6133 14.8306L44.0176 16.4214L56.1787 11.1734V7.7193L40.6133 14.8306ZM13.1465 6.94977L29.4062 14.3785L32.9268 12.733L13.1465 3.48297V6.94977ZM36.126 12.733L39.6455 14.3785L55.9062 6.94977V3.48297L36.126 12.733ZM8.13867 9.42535L12.0557 11.1158V7.6441L8.13867 5.85406V9.42535ZM56.9971 7.6441V11.1158L60.915 9.42535V5.85406L56.9971 7.6441Z" fill="white"/>
</svg>
