<svg width="38" height="38" viewBox="0 0 38 38" fill="none" xmlns="http://www.w3.org/2000/svg">
<path d="M21.165 33.25C21.5499 33.2501 21.7901 33.6667 21.5977 34L19.4326 37.75C19.2401 38.0831 18.7588 38.0833 18.5664 37.75L16.4014 34C16.209 33.6667 16.4501 33.25 16.835 33.25H21.165ZM6.55566 27.7695C6.65526 27.3978 7.12039 27.273 7.39258 27.5449L10.4541 30.6074C10.7262 30.8796 10.6021 31.3437 10.2305 31.4434L6.04785 32.5645C5.67613 32.6641 5.33611 32.3239 5.43555 31.9521L6.55566 27.7695ZM30.6074 27.5449C30.8796 27.2732 31.3438 27.3979 31.4434 27.7695L32.5645 31.9521C32.6638 32.3237 32.3237 32.6638 31.9521 32.5645L27.7695 31.4434C27.3979 31.3438 27.2732 30.8796 27.5449 30.6074L30.6074 27.5449ZM19 6.5C25.9035 6.50009 31.5 12.0965 31.5 19C31.4999 25.9034 25.9034 31.4999 19 31.5C12.0965 31.5 6.50009 25.9035 6.5 19C6.5 12.0964 12.0964 6.5 19 6.5ZM4 16.4014C4.33328 16.2092 4.75 16.4502 4.75 16.835V21.165C4.74989 21.5498 4.33329 21.7901 4 21.5977L0.25 19.4326C-0.0833333 19.2402 -0.0833333 18.7589 0.25 18.5664L4 16.4014ZM33.25 16.835C33.25 16.4501 33.6667 16.209 34 16.4014L37.75 18.5664C38.0833 18.7588 38.0831 19.2401 37.75 19.4326L34 21.5977C33.6667 21.7901 33.2501 21.5499 33.25 21.165V16.835ZM5.43555 6.04785C5.33593 5.67607 5.67607 5.33593 6.04785 5.43555L10.2305 6.55566C10.6022 6.65529 10.7263 7.12042 10.4541 7.39258L7.39258 10.4541C7.12041 10.7263 6.65529 10.6022 6.55566 10.2305L5.43555 6.04785ZM31.9521 5.43555C32.3239 5.33608 32.6641 5.67612 32.5645 6.04785L31.4434 10.2305C31.3436 10.6021 30.8795 10.7262 30.6074 10.4541L27.5449 7.39258C27.273 7.12039 27.3978 6.65526 27.7695 6.55566L31.9521 5.43555ZM18.5664 0.25C18.7589 -0.0833333 19.2402 -0.0833333 19.4326 0.25L21.5977 4C21.7901 4.33329 21.5498 4.74989 21.165 4.75H16.835C16.4502 4.75 16.2092 4.33328 16.4014 4L18.5664 0.25Z" fill="white"/>
</svg>
